<svg xmlns="http://www.w3.org/2000/svg" baseProfile="full" viewBox="0 0 228.02 401.56">
  <path fill="#FF5000" d="M57.764 371.565h41.248v-52.967C43.134 311.254 0 263.446 0 205.564v-86.528c1.067-5.821 6.166-10.232 12.295-10.232 6.616 0 12.032 5.141 12.47 11.646v81.353c0 49.289 39.957 89.246 89.246 89.246 49.289 0 89.246-39.957 89.246-89.246v-83.746c1.516-5.341 6.43-9.253 12.256-9.253 6.208 0 11.378 4.439 12.51 10.316v86.444c0 57.882-43.134 105.69-99.012 113.034v52.967h41.248c8.284 0 14.999 6.715 14.999 14.999s-6.715 15-14.999 15H57.764c-8.284 0-14.999-6.716-14.999-15 0-8.284 6.715-14.999 15-14.999zm-13.88-246.32V75.839C43.884 33.954 75.28 0 114.01 0c38.731 0 70.128 33.954 70.128 75.84v47.372c-.247.941-.38 1.935-.38 2.963v56.099c0 1.027.133 2.021.38 2.963v9.141c0 41.884-31.397 75.839-70.128 75.839-38.73 0-70.127-33.955-70.127-75.839v-11.175l.022-.725v-56.507l-.022-.726z"/>
</svg>
